#define play_width 16
#define play_height 16
static unsigned char play_bits[] = {
   0x02, 0x00, 0x0e, 0x00, 0x3e, 0x00, 0xfe, 0x00, 0xfe, 0x03, 0xfe, 0x0f,
   0xfe, 0x3f, 0xfe, 0x7f, 0xfe, 0x3f, 0xfe, 0x0f, 0xfe, 0x03, 0xfe, 0x00,
   0x3e, 0x00, 0x0e, 0x00, 0x02, 0x00, 0x00, 0x00 };
