#define repeat_width 16
#define repeat_height 16
static unsigned char repeat_bits[] = {
   0x00, 0x00, 0x00, 0x00, 0x00, 0x04, 0x00, 0x0c, 0xfc, 0x1f, 0x02, 0x4c,
   0x01, 0x84, 0x01, 0x80, 0x21, 0x80, 0x32, 0x40, 0xf8, 0x3f, 0x30, 0x00,
   0x20, 0x00, 0x00, 0x00, 0x00, 0x00, 0x00, 0x00 };
