#define shuffle_width 16
#define shuffle_height 16
static unsigned char shuffle_bits[] = {
   0x00, 0x00, 0x00, 0x20, 0x00, 0x40, 0x03, 0xf0, 0x0c, 0x4c, 0x10, 0x22,
   0x20, 0x01, 0xc0, 0x00, 0xc0, 0x00, 0x20, 0x01, 0x10, 0x22, 0x0c, 0x4c,
   0x03, 0xf0, 0x00, 0x40, 0x00, 0x20, 0x00, 0x00 };
